<svg xmlns="http://www.w3.org/2000/svg" version="1.1" xmlns:xlink="http://www.w3.org/1999/xlink" xmlns:svgjs="http://svgjs.dev/svgjs" width="1000" height="999" viewBox="0 0 1000 999"><g transform="matrix(1,0,0,1,-0.215743440233382,-0.21552769679306039)"><svg viewBox="0 0 343 343" data-background-color="#fafafa" preserveAspectRatio="xMidYMid meet" height="999" width="1000" xmlns="http://www.w3.org/2000/svg" xmlns:xlink="http://www.w3.org/1999/xlink"><g id="tight-bounds" transform="matrix(1,0,0,1,0.0740000000000407,0.07400000000001228)"><svg viewBox="0 0 342.85155851775386 342.85155851775386" height="342.85155851775386" width="342.85155851775386"><g><svg></svg></g><g><svg viewBox="0 0 342.85155851775386 342.85155851775386" height="342.85155851775386" width="342.85155851775386"><g><path d="M0 171.426c0-94.676 76.75-171.426 171.426-171.426 94.676 0 171.426 76.75 171.426 171.426 0 94.676-76.75 171.426-171.426 171.426-94.676 0-171.426-76.75-171.426-171.426zM171.426 331.197c88.239 0 159.771-71.532 159.771-159.771 0-88.239-71.532-159.771-159.771-159.771-88.239 0-159.771 71.532-159.771 159.771 0 88.239 71.532 159.771 159.771 159.771z" data-fill-palette-color="tertiary" fill="#130912" stroke="transparent"></path><ellipse rx="164.56874808852186" ry="164.56874808852186" cx="171.42577925887693" cy="171.42577925887693" fill="#130912" stroke="transparent" stroke-width="0" fill-opacity="1" data-fill-palette-color="tertiary"></ellipse></g><g transform="matrix(1,0,0,1,64.84655864529837,106.80752577865661)"><svg viewBox="0 0 213.1584412271571 129.23650696044064" height="129.23650696044064" width="213.1584412271571"><g><svg viewBox="0 0 213.1584412271571 129.23650696044064" height="129.23650696044064" width="213.1584412271571"><g><svg viewBox="0 0 213.1584412271571 129.23650696044064" height="129.23650696044064" width="213.1584412271571"><g><svg viewBox="0 0 213.1584412271571 129.23650696044064" height="129.23650696044064" width="213.1584412271571"><g id="textblocktransform"><svg viewBox="0 0 213.1584412271571 129.23650696044064" height="129.23650696044064" width="213.1584412271571" id="textblock"><g><svg viewBox="0 0 213.1584412271571 129.23650696044064" height="129.23650696044064" width="213.1584412271571"><g transform="matrix(1,0,0,1,0,0)"><svg width="213.1584412271571" viewBox="-0.7 -36.8 65.14 39.5" height="129.23650696044064" data-palette-color="#fafafa"><path d="M18.9-24.75L18.9-24.75Q17.55-24.75 17.55-25.55L17.55-25.55Q17.55-26.8 20.48-29.18 23.4-31.55 26.95-32.95L26.95-32.95Q27-33.05 27-33.3L27-33.3Q27-35.55 23.9-35.55 20.8-35.55 16.28-32.88 11.75-30.2 8.35-26.58 4.95-22.95 4.95-20.45L4.95-20.45Q4.95-17.3 10.75-17.3L10.75-17.3Q14.15-17.3 16.6-18.9L16.6-18.9Q16.75-19.1 16.95-19.1L16.95-19.1Q17.3-19.1 17.3-18.57 17.3-18.05 16.95-17.9L16.95-17.9Q10.7-15.05 6.6-11.4L6.6-11.4Q4.85-9.85 3.43-7.53 2-5.2 2-3.23 2-1.25 3.03 0.03 4.05 1.3 6.85 1.3L6.85 1.3Q7.8 1.25 9 1 10.2 0.75 13.05-0.7 15.9-2.15 18.5-4.55L18.5-4.55Q18.9-5.05 19.15-5.05L19.15-5.05Q19.45-5 19.45-4.65L19.45-4.65Q19.45-3.8 17.1-2.05 14.75-0.3 11.23 1.2 7.7 2.7 5.05 2.7L5.05 2.7Q1.25 2.7-0.15 0.1L-0.15 0.1Q-0.7-0.95-0.7-2.3L-0.7-2.3Q-0.7-5.6 3.13-9.73 6.95-13.85 13.05-16.65L13.05-16.65Q10.7-16.15 8.7-16.15L8.7-16.15Q2.4-16.15 2.4-19.65L2.4-19.65Q2.4-21.8 4.75-24.83 7.1-27.85 10.43-30.45 13.75-33.05 17.63-34.93 21.5-36.8 24.25-36.8L24.25-36.8Q28.5-36.8 28.5-33.9L28.5-33.9Q28.5-33.6 28.45-33.45L28.45-33.45Q30.65-34.15 31.75-34.15 32.85-34.15 33.15-34.08 33.45-34 33.45-33.45 33.45-32.9 33.05-32.8L33.05-32.8Q30.75-32.8 28.05-31.95L28.05-31.95Q26.95-29.3 24.18-27.03 21.4-24.75 18.9-24.75ZM19.2-26.15L19.2-26.15Q19.2-25.7 20-25.7L20-25.7Q21.5-25.7 23.55-27.53 25.6-29.35 26.5-31.4L26.5-31.4Q23.6-30.2 21.4-28.58 19.2-26.95 19.2-26.15ZM21.35 0.8L21.35 0.8Q19.1 0.8 19.1-1.65L19.1-1.65Q19.1-4.9 22.62-10.98 26.15-17.05 30.67-21.88 35.2-26.7 37.8-26.7L37.8-26.7Q38.75-26.7 38.75-25.35L38.75-25.35Q38.75-23.25 35.22-18.5 31.7-13.75 27.65-9.6 23.6-5.45 21.4-3.9L21.4-3.9Q21.3-3.1 21.3-2.83 21.3-2.55 21.35-2.2 21.4-1.85 21.75-1.3 22.1-0.75 22.92-0.75 23.75-0.75 25.85-1.73 27.95-2.7 29.55-3.7L29.55-3.7 31.15-4.7Q31.2-4.6 31.2-4.3 31.2-4 30.75-3.8L30.75-3.8Q24 0.8 21.35 0.8ZM36.95-24.15L36.95-24.15Q36.9-25.25 36.3-25.25L36.3-25.25Q34.75-25.25 31.6-21.75 28.45-18.25 25.5-13.38 22.55-8.5 21.65-5L21.65-5Q23.75-6.7 27.05-10 30.35-13.3 33.55-17.55 36.75-21.8 36.95-24.15ZM31 0.8L31 0.8Q28.75 0.8 28.75-1.65L28.75-1.65Q28.75-4.9 32.27-10.98 35.8-17.05 40.32-21.88 44.84-26.7 47.45-26.7L47.45-26.7Q48.39-26.7 48.39-25.35L48.39-25.35Q48.39-23.25 44.87-18.5 41.34-13.75 37.3-9.6 33.24-5.45 31.04-3.9L31.04-3.9Q30.95-3.1 30.95-2.83 30.95-2.55 31-2.2 31.04-1.85 31.39-1.3 31.75-0.75 32.57-0.75 33.39-0.75 35.49-1.73 37.59-2.7 39.2-3.7L39.2-3.7 40.8-4.7Q40.84-4.6 40.84-4.3 40.84-4 40.39-3.8L40.39-3.8Q33.64 0.8 31 0.8ZM46.59-24.15L46.59-24.15Q46.55-25.25 45.95-25.25L45.95-25.25Q44.39-25.25 41.25-21.75 38.09-18.25 35.14-13.38 32.2-8.5 31.29-5L31.29-5Q33.39-6.7 36.7-10 40-13.3 43.2-17.55 46.39-21.8 46.59-24.15ZM42.09-4.85L42.09-4.85Q39.09-4.85 39.09-6.15L39.09-6.15Q39.09-7.7 42.64-9.83 46.19-11.95 49.04-11.95L49.04-11.95Q50.49-11.95 50.49-11.05L50.49-11.05Q50.49-10.55 49.74-9.95 48.99-9.35 48.29-9 47.59-8.65 47.49-8.65L47.49-8.65Q47.19-8.65 47.09-8.9L47.09-8.9Q46.99-9.25 47.62-9.63 48.24-10 48.24-10.45 48.24-10.9 47.12-10.9 45.99-10.9 43.59-9.33 41.19-7.75 41.19-6.75L41.19-6.75Q41.19-6 42.94-6L42.94-6Q43.24-6 44.04-6.05 44.84-6.1 44.84-5.85 44.84-5.6 42.37-4.05 39.89-2.5 39.89-1.4L39.89-1.4Q39.89-0.15 41.52-0.15 43.14-0.15 45.19-1L45.19-1Q48.49-2.45 51.19-4.1L51.19-4.1 52.14-4.7Q52.19-4.6 52.19-4.3 52.19-4 51.74-3.8L51.74-3.8Q49.09-2 45.94-0.38 42.79 1.25 40.27 1.25 37.74 1.25 37.74-0.43 37.74-2.1 42.09-4.85ZM51.04-3.35L51.04-3.35Q50.84-3.25 50.67-3.25 50.49-3.25 50.49-3.45 50.49-3.65 50.64-3.8L50.64-3.8Q52.69-4.95 55.14-7.55L55.14-7.55Q52.89-8.25 52.89-9.53 52.89-10.8 54.59-12.38 56.29-13.95 57.79-13.95L57.79-13.95Q58.79-13.95 58.79-12.75L58.79-12.75Q58.79-10.9 56.94-8.8L56.94-8.8Q59.34-8.4 59.34-7.65L59.34-7.65Q59.34-6.65 58.47-6.13 57.59-5.6 56.44-4.25 55.29-2.9 55.29-1.55L55.29-1.55Q55.29-1.25 55.49-1 55.69-0.75 56.34-0.75 56.99-0.75 59.09-1.73 61.19-2.7 62.79-3.7L62.79-3.7 64.39-4.7Q64.44-4.6 64.44-4.3 64.44-4 63.99-3.8L63.99-3.8Q57.24 0.8 54.59 0.8L54.59 0.8Q53.29 0.8 53.29-0.5L53.29-0.5Q53.29-1.55 54.02-2.7 54.74-3.85 55.62-4.6 56.49-5.35 57.22-6.03 57.94-6.7 57.94-6.9 57.94-7.1 57.32-7.15 56.69-7.2 55.69-7.4L55.69-7.4Q52.94-4.45 51.04-3.35ZM54.14-10.3L54.14-10.3Q54.14-9.3 56.34-8.9L56.34-8.9Q57.64-10.5 57.64-11.68 57.64-12.85 56.89-12.85 56.14-12.85 55.14-11.98 54.14-11.1 54.14-10.3Z" opacity="1" transform="matrix(1,0,0,1,0,0)" fill="#fafafa" class="wordmark-text-0" data-fill-palette-color="quaternary" id="text-0"></path></svg></g></svg></g></svg></g></svg></g><g></g></svg></g></svg></g></svg></g></svg></g><defs></defs></svg><rect width="342.85155851775386" height="342.85155851775386" fill="none" stroke="none" visibility="hidden"></rect></g></svg></g></svg>